<svg version="1.1" id="Icons" xmlns="http://www.w3.org/2000/svg" xmlns:xlink="http://www.w3.org/1999/xlink" x="0px" y="0px"
	 viewBox="0 0 32 32" style="enable-background:new 0 0 32 32;" xml:space="preserve" fill="rgb(66,104,174">
<g>
	<path d="M29,19h-4.5c-0.3,0-0.5-0.1-0.7-0.3L16,10.5l-7.8,8.2C8,18.9,7.8,19,7.5,19H3c-0.4,0-0.8-0.2-0.9-0.6
		C1.9,18,2,17.6,2.3,17.3l13-14c0.4-0.4,1.1-0.4,1.5,0l13,14c0.3,0.3,0.3,0.7,0.2,1.1C29.8,18.8,29.4,19,29,19z"/>
</g>
<path d="M24.5,21c-0.8,0-1.6-0.3-2.2-0.9L16,13.4l-6.3,6.7C9.1,20.7,8.3,21,7.5,21H6v7c0,0.6,0.4,1,1,1h18c0.6,0,1-0.4,1-1v-7H24.5z
	"/>
</svg>
